<svg xmlns="http://www.w3.org/2000/svg" width="24" height="24" viewBox="0 0 24 24">
  <path id="Icon_material-person-outline" data-name="Icon material-person-outline" d="M18,7.85a3.922,3.922,0,0,1,3.051,1.464A5.1,5.1,0,0,1,22.15,12a5.038,5.038,0,0,1-1.274,3.114A4.118,4.118,0,0,1,18,16.15a4.014,4.014,0,0,1-2.749-1.036A4.853,4.853,0,0,1,13.85,12a4.656,4.656,0,0,1,1.4-2.9A4.127,4.127,0,0,1,18,7.85m0,13.5c4.455,0,10.15,3.19,10.15,4.15v2.65H7.85V25.5c0-.96,5.695-4.15,10.15-4.15M18,6a6,6,0,1,0,6,6A6,6,0,0,0,18,6Zm0,13.5c-4.005,0-12,2.01-12,6V30H30V25.5C30,21.51,22.005,19.5,18,19.5Z" transform="translate(-6 -6)"/>
</svg>
